<?xml version="1.0" encoding="utf-8" ?><svg xmlns="http://www.w3.org/2000/svg" xmlns:xlink="http://www.w3.org/1999/xlink" width="400" height="400"><defs><linearGradient id="gradient_0" gradientTransform="matrix(183.75 318.75 -318.75 183.75 39.375 -1.92105e-06)" gradientUnits="userSpaceOnUse" x1="0" y1="0" x2="1" y2="0"><stop offset="0" stop-color="#3B82F6"/><stop offset="1" stop-color="#06B6D4"/></linearGradient></defs><path fill="url(#gradient_0)" transform="matrix(1 0 0 1 68.75 43.75)" d="M131.25 0C57.8125 0 0 57.8125 0 131.25C0 225 131.25 318.75 131.25 318.75C131.25 318.75 262.5 225 262.5 131.25C262.5 57.8125 204.6875 0 131.25 0Z"/><circle fill="#FFF" transform="matrix(1 0 0 1 131.25 103.125)" cx="68.75" cy="68.75" r="68.75"/><path fill="#3B82F6" transform="matrix(1 0 0 1 176.562 137.5)" d="M-5.391 42.6988Q-8 49.6561 -8 57.8125Q-8.0965 61.1662 -5.6569 63.4694Q-3.3537 65.909 0 65.8125Q3.3537 65.909 5.6569 63.4694Q8.0965 61.1662 8 57.8125Q8 52.5574 9.5902 48.3168Q10.9384 44.7217 13.3191 42.1245Q15.3843 39.8717 17.9083 38.6839Q20.0256 37.6875 21.875 37.6875Q27.2364 37.6875 32.8955 35.2551Q38.7391 32.7434 43.4355 28.2276Q48.7073 23.1585 51.6328 16.3767Q54.875 8.8607 54.875 0Q54.9715 -3.3537 52.5319 -5.6569Q50.2287 -8.0965 46.875 -8Q43.5213 -8.0965 41.2181 -5.6569Q38.7785 -3.3537 38.875 0Q38.875 5.5569 36.9414 10.0393Q35.2932 13.8602 32.3458 16.6943Q29.7472 19.1929 26.5772 20.5555Q23.9435 21.6875 21.875 21.6875Q16.449 21.6875 11.0956 24.2068Q5.7196 26.7366 1.5246 31.313Q-2.9531 36.1978 -5.391 42.6988Z" fill-rule="evenodd"/><circle fill="#06B6D4" transform="matrix(1 0 0 1 170.312 189.062)" cx="6.25" cy="6.25" r="6.25"/><circle fill="#3B82F6" transform="matrix(1 0 0 1 217.188 131.25)" cx="6.25" cy="6.25" r="6.25"/></svg>